<?xml version="1.0" encoding="UTF-8"?><svg version="1.1" viewBox="0 0 48 48" xmlns="http://www.w3.org/2000/svg" xmlns:xlink="http://www.w3.org/1999/xlink"><!--Generated by IJSVG (https://github.com/curthard89/IJSVG)--><path d="M22,10.16v-6.16c-10,1 -18,9.62 -18,20c0,10.38 8,19 18,20v-6.16c-6,-0.96 -12,-6.8 -12,-13.84c0,-7.04 6,-12.88 12,-13.84Zm15.94,11.84h6.06c-0.94,-10 -8,-17.06 -18,-18v6.16c6,0.86 11.08,5.84 11.94,11.84Zm-11.94,15.84v6.16c10,-0.94 17.06,-8 18,-18h-6.06c-0.86,6 -5.94,10.98 -11.94,11.84Z" fill="#000"></path><path fill="none" d="M0,0h48v48h-48Z"></path></svg>